<svg height="512pt" viewBox="-12 0 512 512" width="512pt" xmlns="http://www.w3.org/2000/svg" xmlns:xlink="http://www.w3.org/1999/xlink"><linearGradient id="a"><stop offset="0" stop-color="#c08552"/><stop offset="1" stop-color="#895738"/></linearGradient><linearGradient id="b" gradientUnits="userSpaceOnUse" x1="105.8618736246" x2="393.03948408" xlink:href="#a" y1="56.5540384182" y2="471.7371250524"/><linearGradient id="c" gradientUnits="userSpaceOnUse" x1="432.4310743394" x2="198.8420171064" y1="407.575767287" y2="173.986710054"><stop offset="0" stop-color="#895738" stop-opacity="0"/><stop offset="1" stop-color="#5e3023"/></linearGradient><linearGradient id="d"><stop offset="0" stop-color="#7ac943"/><stop offset=".4564" stop-color="#5fc146"/><stop offset="1" stop-color="#39b54a"/></linearGradient><linearGradient id="e" gradientTransform="matrix(.709873 .709873 -.709873 .709873 -2176.027206 -666.032791)" gradientUnits="userSpaceOnUse" x1="2319.7122" x2="2448.5156" xlink:href="#d" y1="-1113.7617" y2="-1113.7617"/><linearGradient id="f"><stop offset="0" stop-color="#39b54a" stop-opacity="0"/><stop offset=".1072" stop-color="#2fab48" stop-opacity=".105882"/><stop offset=".4553" stop-color="#159043" stop-opacity=".454902"/><stop offset=".7642" stop-color="#06803f" stop-opacity=".764706"/><stop offset="1" stop-color="#007a3e"/></linearGradient><linearGradient id="g" gradientTransform="matrix(.709873 .709873 -.709873 .709873 -2176.027206 -666.032791)" gradientUnits="userSpaceOnUse" x1="2430.8943" x2="2339.5386" xlink:href="#f" y1="-1126.7332" y2="-1101.0117"/><linearGradient id="h"><stop offset="0" stop-color="#39b54a"/><stop offset=".2394" stop-color="#32ad48"/><stop offset=".6031" stop-color="#1d9844"/><stop offset="1" stop-color="#007a3e"/></linearGradient><linearGradient id="i" gradientTransform="matrix(.709873 .709873 -.709873 .709873 -2176.027206 -666.032791)" gradientUnits="userSpaceOnUse" x1="2367.8413" x2="2400.5195" xlink:href="#h" y1="-1094.3995" y2="-1094.3995"/><linearGradient id="j" gradientUnits="userSpaceOnUse" x1="290.8802809678" x2="198.5926428816" xlink:href="#f" y1="356.6757171806" y2="264.3880790944"/><linearGradient id="k" gradientTransform="matrix(.709873 -.709873 .615304 .615304 1852.653126 -1316.240464)" gradientUnits="userSpaceOnUse" x1="-2375.4417" x2="-2246.6382" xlink:href="#d" y1="-70.4022" y2="-70.4022"/><linearGradient id="l" gradientTransform="matrix(.709873 -.709873 .615304 .615304 1852.653126 -1316.240464)" gradientUnits="userSpaceOnUse" x1="-2264.2598" x2="-2355.6135" xlink:href="#f" y1="-83.3736" y2="-57.6527"/><linearGradient id="m" gradientTransform="matrix(.709873 -.709873 .615304 .615304 1852.653126 -1316.240464)" gradientUnits="userSpaceOnUse" x1="-2327.3125" x2="-2294.6345" xlink:href="#h" y1="-51.0409" y2="-51.0409"/><linearGradient id="n" gradientUnits="userSpaceOnUse" x1="243.816518" x2="243.816518" xlink:href="#a" y1="-2.1435742544" y2="52.377120545"/><linearGradient id="o" gradientUnits="userSpaceOnUse" x1="243.816518" x2="243.816518" xlink:href="#a" y1="459.150754154" y2="513.6715493456"/><path d="m0 256c0 85.984375 7.855469 167.59375 21.941406 241.003906h443.75c14.085938-73.410156 21.941406-155.019531 21.941406-241.003906s-7.855468-167.59375-21.941406-241.003906h-443.75c-14.085937 73.410156-21.941406 155.019531-21.941406 241.003906zm0 0" fill="url(#b)"/><path d="m487.632812 256c0-6.972656-.070312-13.90625-.171874-20.820312l-87.1875-87.1875c-1.765626-4.121094-6.109376-6.898438-10.972657-6.230469-28.59375 3.921875-97.828125 18.105469-146.273437 66.554687-10.863282 10.863282-18.582032 21.914063-23.976563 32.691406-41.390625-33.304687-96.644531-40.667968-120.796875-42.273437-6.304687-.417969-12.132812 5.410156-11.710937 11.714844 1.753906 26.429687 10.378906 90.101562 52.371093 132.09375l154.554688 154.460937h172.222656c14.085938-73.410156 21.941406-155.019531 21.941406-241.003906zm0 0" fill="url(#c)"/><path d="m401.015625 153.476562c.933594-6.824218-4.894531-12.652343-11.714844-11.714843-28.59375 3.921875-97.828125 18.105469-146.273437 66.554687-47.820313 47.816406-34.878906 99.308594-29.492188 114.613282 1.039063 2.949218 3.359375 5.273437 6.3125 6.3125 15.300782 5.386718 66.792969 18.324218 114.613282-29.492188 48.445312-48.449219 62.628906-117.679688 66.554687-146.273438zm0 0" fill="url(#e)"/><path d="m337.867188 296.238281c.609374-.644531 1.21875-1.292969 1.816406-1.941406.277344-.300781.550781-.601563.824218-.902344.652344-.714843 1.292969-1.433593 1.929688-2.152343.183594-.210938.367188-.417969.550781-.625.808594-.921876 1.601563-1.851563 2.390625-2.789063.191406-.230469.382813-.464844.574219-.695313.597656-.71875 1.191406-1.4375 1.773437-2.160156.253907-.316406.507813-.632812.757813-.945312.546875-.6875 1.089844-1.375 1.625-2.0625.21875-.285156.445313-.570313.664063-.855469.738281-.960937 1.464843-1.921875 2.179687-2.890625.046875-.0625.089844-.121094.136719-.183594.671875-.910156 1.332031-1.828125 1.988281-2.746094.214844-.300781.429687-.605468.644531-.910156.492188-.699218.980469-1.402344 1.460938-2.101562.222656-.320313.441406-.640625.660156-.964844.535156-.785156 1.0625-1.574219 1.585938-2.367188.132812-.203124.273437-.410156.40625-.613281.648437-.992187 1.285156-1.984375 1.914062-2.976562.164062-.261719.324219-.519531.484375-.777344.46875-.753906.9375-1.503906 1.394531-2.257813.203125-.332031.40625-.664062.605469-.996093.4375-.726563.871094-1.457031 1.300781-2.1875.171875-.289063.34375-.582031.511719-.875.585937-1.003907 1.164063-2.007813 1.726563-3.015625.0625-.113282.125-.226563.1875-.339844.503906-.898438 1-1.800781 1.488281-2.703125.175781-.320313.347656-.640625.519531-.960937.386719-.71875.765625-1.441407 1.144531-2.164063.171875-.324219.34375-.652344.511719-.980469.429688-.828125.855469-1.660156 1.273438-2.488281.09375-.1875.191406-.375.285156-.5625.507812-1.007813 1.003906-2.019531 1.488281-3.03125.136719-.273437.265625-.550781.398437-.828125.359376-.746094.714844-1.496094 1.066407-2.246094.15625-.335937.3125-.671875.46875-1.007812.339843-.738282.675781-1.476563 1.011719-2.21875.128906-.28125.257812-.566406.382812-.851563.449219-1.003906.890625-2.007812 1.324219-3.011719.066406-.148437.128906-.296874.191406-.445312.371094-.859375.734375-1.71875 1.09375-2.578125.132813-.320313.265625-.636719.394531-.957031.296875-.710938.585938-1.425782.871094-2.132813.128906-.320312.257812-.636719.386719-.957031.335937-.84375.667969-1.683594.992187-2.523438.058594-.152343.121094-.308593.179688-.457031.378906-.988281.753906-1.972656 1.117187-2.953125.105469-.28125.207031-.558594.3125-.839844.265625-.71875.527344-1.433593.785157-2.148437.117187-.320313.230468-.644531.34375-.964844.257812-.722656.511718-1.441406.761718-2.15625.089844-.261719.183594-.527343.273438-.789062.332031-.960938.65625-1.917969.976562-2.871094.054688-.175781.109375-.34375.167969-.515625.261719-.789062.519531-1.574219.769531-2.359375.101563-.304687.199219-.613281.296875-.917969.210938-.667968.421875-1.332031.628907-1.996094.09375-.300781.1875-.597656.277343-.894531.253907-.824219.5-1.640625.746094-2.453125.03125-.109375.066406-.21875.097656-.328125.273438-.921875.539063-1.835937.800781-2.746093.078126-.265626.148438-.527344.226563-.789063.183594-.65625.371094-1.3125.550781-1.964844.082032-.296875.164063-.59375.246094-.886719.183594-.671874.363281-1.339843.542969-2.003906.058593-.222656.121093-.449218.179687-.671875.230469-.878906.457032-1.75.679688-2.609375.042968-.175781.085937-.34375.128906-.519531.175781-.695313.351562-1.382813.519531-2.066406.066407-.273438.132813-.546875.199219-.816407.148438-.605468.292969-1.207031.433594-1.800781.0625-.257812.125-.515625.183594-.769531.179687-.761719.355468-1.515625.523437-2.257812.015625-.066407.03125-.132813.046875-.195313.183594-.808594.359375-1.609375.535156-2.398437.050782-.234376.097656-.464844.148438-.695313.125-.570313.246094-1.140625.367187-1.703125.050781-.25.105469-.496094.15625-.746094.121094-.582031.238281-1.160156.355469-1.730468.039062-.1875.078125-.378907.113281-.5625.148438-.742188.292969-1.476563.433594-2.199219.03125-.160157.058594-.316407.089844-.476563.109375-.570312.21875-1.132812.320312-1.6875.042969-.230468.085938-.457031.125-.683594.09375-.5.183594-.996093.269531-1.484374.039063-.207032.074219-.414063.109376-.617188.117187-.664062.234374-1.320312.34375-1.960938 0-.007812 0-.019531.003906-.027343.113281-.652344.214844-1.292969.320312-1.921875.03125-.191406.058594-.378906.089844-.566406.074219-.453126.144531-.894532.210938-1.332032.03125-.191406.0625-.382812.089843-.574218.070313-.460938.140625-.914063.207031-1.363282.019532-.132812.042969-.269531.0625-.398437.082032-.570313.164063-1.125.238282-1.667969.019531-.128906.035156-.253906.054687-.378906.042969-.300782.082031-.59375.121094-.886719.460937-3.402344-.761719-6.558594-2.949219-8.746094l-182.09375 182.09375c1.078125 1.078125 2.390625 1.914063 3.859375 2.433594.148438.054687.304688.109375.464844.164063.078125.027343.152344.054687.234375.082031.285156.097656.578125.195312.878906.296875.050782.015625.105469.03125.160156.050781.253907.082031.511719.167969.78125.253906.113282.035157.226563.070313.339844.105469.21875.070312.441406.136719.667969.207031.128906.039063.261719.082031.398437.121094.222657.066406.453126.136719.6875.203125.136719.039062.273438.082031.414063.121094.253906.074218.511719.144531.773437.21875.125.035156.25.070312.375.105468.394532.105469.792969.214844 1.203126.320313.015624.003906.03125.007813.046874.011719.394532.105468.800782.207031 1.210938.308594.136719.035156.277344.070312.417969.101562.296875.074219.597656.144531.902343.214844.164063.039062.332032.078125.5.117187.289063.066407.582032.132813.882813.199219.175781.039062.355469.078125.535156.117188.3125.066406.632813.132812.953125.199218.164063.03125.324219.066406.488282.097656.433593.089844.871093.171876 1.3125.257813.0625.011719.121093.023437.179687.03125.503906.09375 1.015625.1875 1.535156.273437.160157.027344.320313.054688.480469.082032.367188.058594.738281.121094 1.117188.179687.191406.03125.390624.058594.589843.089844.351563.050781.707031.105469 1.0625.152344.210938.03125.417969.058593.625.085937.371094.050782.742188.097656 1.117188.144532.195312.023437.394531.050781.597656.074218.449219.050782.910156.101563 1.367187.152344.128907.011719.25.027344.378907.039062.585937.058594 1.179687.113282 1.78125.164063.15625.015625.320312.023437.476562.039063.445313.035156.894531.070312 1.351563.101562.21875.015625.445312.027344.667968.039062.402344.027344.804688.050782 1.214844.070313.238282.011719.476563.023437.714844.035156.414062.015625.824219.03125 1.242188.046875.230468.007813.464843.015625.699218.019532.472656.015624.945313.023437 1.425782.027343.179687.003907.355468.007813.539062.007813.65625.003906 1.320312.003906 1.988281-.003906.140625 0 .28125-.003907.421875-.007813.53125-.007813 1.066406-.019531 1.605469-.035156.238281-.003907.476563-.015625.71875-.023438.449219-.015625.902344-.035156 1.355469-.058593.261718-.011719.523437-.027344.785156-.042969.449219-.023438.902344-.054688 1.355469-.085938.257812-.019531.519531-.035156.78125-.054687.492187-.039063.988281-.082032 1.488281-.128906.21875-.019532.4375-.039063.65625-.058594.71875-.070313 1.4375-.148438 2.164062-.234375.078126-.007813.160157-.019531.238282-.03125.648437-.078125 1.296875-.164063 1.953125-.253907.246093-.035156.492187-.074218.742187-.109374.492188-.074219.988282-.148438 1.488282-.230469l.84375-.140625c.476562-.082032.960937-.167969 1.441406-.257813.28125-.050781.566406-.105469.847656-.160156.511719-.097656 1.023438-.203125 1.535156-.3125.253906-.050781.507813-.101563.761719-.160156.703125-.152344 1.414063-.3125 2.125-.484375.058594-.011719.117187-.027344.175781-.039063.769532-.1875 1.542969-.382812 2.320313-.589843.242187-.066407.484375-.132813.722656-.199219.542969-.148438 1.085937-.300781 1.628906-.457031.289063-.085938.582031-.175782.871094-.261719.507813-.152344 1.015625-.308594 1.523437-.46875.296876-.09375.597657-.191407.894532-.289063.523437-.171875 1.050781-.347656 1.574218-.53125.277344-.09375.554688-.1875.832032-.285156.652344-.230469 1.300781-.46875 1.957031-.714844.148437-.058594.296875-.109375.445313-.167968.804687-.304688 1.609374-.625 2.417968-.953126.222656-.09375.449219-.191406.675782-.285156.585937-.246094 1.171874-.492187 1.757812-.75.296875-.128906.589844-.265625.886719-.394531.527343-.238281 1.054687-.480469 1.582031-.726563.308594-.144531.621094-.292968.929688-.441406.53125-.253906 1.066406-.519531 1.601562-.785156.292969-.148438.585938-.292969.878906-.441406.613282-.3125 1.230469-.636719 1.84375-.96875.210938-.109375.421875-.21875.632813-.332032.820312-.449218 1.644531-.90625 2.46875-1.382812.191406-.109375.386719-.226562.574219-.335938.636718-.371093 1.273437-.75 1.910156-1.136718.292968-.179688.585937-.363282.878906-.542969.542969-.339844 1.085938-.679687 1.628906-1.03125.3125-.203125.625-.40625.941406-.613281.535157-.351563 1.070313-.710938 1.609376-1.078125.304687-.207031.609374-.414063.914062-.625.589844-.410157 1.179688-.828125 1.769531-1.253907.246094-.175781.492188-.347656.738281-.527343.828126-.609375 1.660157-1.230469 2.492188-1.871094.128906-.097656.257812-.203125.386719-.304687.703125-.546876 1.40625-1.101563 2.109375-1.671876.28125-.226562.566406-.464843.847656-.695312.554688-.457031 1.109375-.917969 1.664062-1.386719.3125-.265625.625-.539062.9375-.808593.535157-.460938 1.066407-.933594 1.601563-1.410157.308594-.277343.617187-.550781.929687-.835937.566407-.515625 1.132813-1.042969 1.699219-1.574219.265625-.25.535157-.5.800781-.753906.828126-.789063 1.65625-1.59375 2.484376-2.421875.882812-.882813 1.753906-1.777344 2.617187-2.675782.265625-.273437.527344-.554687.789063-.832031zm0 0" fill="url(#g)"/><path d="m352.851562 210c-1.769531.59375-3.539062 1.066406-5.289062 1.550781-1.75.492188-3.492188.984375-5.222656 1.382813-1.730469.4375-3.445313.625-5.140625.847656-1.695313.210938-3.382813.6875-5.109375 1.414062-1.71875.75-3.4375 1.570313-5.222656 2.589844 1.90625-2.03125 3.808593-4.0625 5.714843-6.09375l9.390625-9.851562c3.125-3.300782 6.359375-6.441406 9.519532-9.710938 6.390624-6.449218 12.90625-12.683594 19.734374-18.628906l-.679687-1.332031-5.59375 3.882812-2.816406 1.957031c-.925781.667969-1.816407 1.375-2.726563 2.066407-3.589844 2.808593-7.300781 5.542969-10.796875 8.488281-7.125 5.769531-14.042969 11.78125-20.992187 17.777344-1.320313 1.179687-2.640625 2.363281-3.960938 3.539062.453125-1.265625.816406-2.527344.988282-3.789062.234374-1.699219.441406-3.417969.894531-5.148438.414062-1.734375.921875-3.476562 1.429687-5.226562.503906-1.753906.992188-3.523438 1.597656-5.292969 1.070313-3.566406 2.457032-7.136719 3.785157-10.8125l-.828125-.246094c-2.664063 3.335938-5.15625 6.824219-7.402344 10.410157-1.140625 1.792968-2.171875 3.617187-3.230469 5.449218-.972656 1.84375-1.949219 3.695313-2.835937 5.5625-.90625 1.867188-1.917969 3.746094-2.859375 5.648438-.902344 1.898437-1.503907 3.804687-1.71875 5.664062-.035157.367188-.066407.730469-.09375 1.09375-.265625 3.949219-2.601563 8.246094-6.132813 11.5l-.066406.058594c-6.144531 5.664062-12.195312 11.410156-18.269531 17.140625.597656-1.785156 1.015625-3.464844 1.359375-5.125.328125-1.707031.394531-3.316406.183594-4.859375-.203126-1.546875-.441407-3.105469-.425782-4.742188-.023437-1.625.050782-3.28125.121094-4.949218.066406-1.664063.109375-3.34375.28125-5.050782.183594-3.402343.699219-6.890624 1.128906-10.460937l-.945312.007813c-1.9375 3.625-3.652344 7.339843-5.078125 11.078124-.734375 1.871094-1.34375 3.738282-1.976563 5.625-.539062 1.867188-1.082031 3.75-1.527344 5.617188-.460937 1.875-1.035156 3.789062-1.523437 5.699219-.453125 1.902343-.585937 3.730469-.3125 5.410156.128906.738281.289063 1.46875.496094 2.179687 1.011719 3.460938-.886719 8.109376-4.46875 11.429688-3.078125 2.851562-6.164063 5.699219-9.226563 8.566406-3.886718 3.628906-7.632812 7.382813-11.277344 11.234375.480469-1.535156.84375-3 1.144532-4.453125.328125-1.707031.398437-3.3125.183594-4.859375-.203126-1.546875-.441407-3.101562-.425782-4.738281-.023437-1.625.050782-3.28125.121094-4.949219.066406-1.664062.113281-3.34375.28125-5.050781.183594-3.402344.703125-6.890625 1.128906-10.460938l-.945312.007813c-1.9375 3.628906-3.652344 7.339844-5.078125 11.078125-.734375 1.875-1.34375 3.742188-1.976563 5.628906-.539062 1.863282-1.082031 3.746094-1.527344 5.617188-.460937 1.871094-1.035156 3.785156-1.523437 5.699218-.449219 1.898438-.582031 3.726563-.3125 5.40625.292969 1.664063.746094 3.277344 1.523437 4.726563.894532 1.660156.410157 4.101563-1.296874 6.136719-4.414063 5.269531-12.335938 14.835937-16.28125 20.097656-5.304688 7.152344-10.429688 14.449219-14.933594 22.253906-.222656.382813-.136719.871094.203125 1.152344.3125.265625.769531.289062 1.109375.054688 7.546875-5.214844 14.554687-10.863282 21.382812-16.660157 6.984375-5.953125 13.746094-12.089843 20.316406-18.386719.117188-.109374.234376-.222656.351563-.332031 2.117187-2.03125 4.832031-2.671875 6.679687-1.714843 1.363282.707031 2.863282 1.136718 4.40625 1.425781 1.671876.289062 3.496094.175781 5.394532-.257813 1.910156-.472656 3.824218-1.027344 5.691406-1.472656 1.867188-.425781 3.75-.953125 5.613281-1.472656 1.886719-.617188 3.753907-1.210938 5.625-1.929688 3.738281-1.390625 7.457031-3.074218 11.089844-4.984375l.015625-.945312c-3.558594.390625-7.042969.875-10.433594 1.023437-1.703125.15625-3.375.183594-5.035156.234375-1.660156.054688-3.3125.109375-4.933594.070313-1.628906 0-3.179687-.257813-4.71875-.476563-1.535156-.226562-3.136718-.175781-4.839844.136719-1.855468.367188-3.738281.84375-5.761718 1.539062 3.292968-3.449218 6.503906-6.96875 9.636718-10.5625 2.484376-2.890624 5.863282-6.757812 8.839844-10.148437 3.164063-3.605469 7.71875-5.617187 11.210938-4.777344 1.703125.414063 3.558594.53125 5.164062.832031 1.671875.289063 3.492188.171876 5.390625-.257812 1.910157-.472656 3.824219-1.03125 5.695313-1.472656 1.867187-.429688 3.746094-.953125 5.613281-1.476563 1.882813-.613281 3.75-1.207031 5.625-1.925781 3.738281-1.390625 7.453125-3.074219 11.085937-4.984375l.019532-.949219c-3.5625.394532-7.042969.878906-10.433594 1.027344-1.707031.15625-3.378906.183594-5.039062.234375-1.660157.050781-3.3125.109375-4.929688.070313-1.628906 0-3.179688-.257813-4.71875-.476563-1.539062-.230469-3.140625-.175781-4.84375.136719-3.261719.644531-6.617188 1.597656-10.699219 3.652344 6.132813-6.667969 12.234375-13.386719 18.4375-19.988282l.238281-.257812c3.707032-4.070313 8.78125-6.648438 13.105469-6.363282 1.222657.082032 2.472657.035157 3.730469-.082031 1.855469-.195312 3.761719-.78125 5.660156-1.667969 1.902344-.921874 3.789063-1.921874 5.65625-2.808593 1.871094-.871094 3.726563-1.835938 5.570313-2.789063 1.839843-1.042968 3.664062-2.0625 5.460937-3.1875 3.601563-2.21875 7.101563-4.683594 10.449219-7.324218l-.234375-.832032c-3.671875 1.292969-7.242188 2.648438-10.804688 3.683594zm0 0" fill="url(#i)"/><path d="m219.847656 329.242188c11.910156 4.191406 45.738282 12.953124 82.699219-5.90625l-72.199219-72.226563c-3.613281-3.613281-7.390625-6.976563-11.289062-10.113281-18.355469 36.660156-9.6875 70.105468-5.523438 81.933594 1.039063 2.953124 3.359375 5.273437 6.3125 6.3125zm0 0" fill="url(#j)"/><path d="m98.253906 198.734375c-6.304687-.417969-12.132812 5.410156-11.714844 11.714844 1.757813 26.429687 10.382813 90.105469 52.375 132.09375 41.445313 41.445312 90.371094 25.9375 105.011719 19.890625 2.824219-1.164063 5.144531-3.488282 6.3125-6.3125 6.046875-14.640625 21.554688-63.5625-19.890625-105.011719-41.992187-41.992187-105.664062-50.617187-132.09375-52.375zm0 0" fill="url(#k)"/><path d="m227.296875 248.164062c-.558594-.527343-1.125-1.050781-1.691406-1.566406-.261719-.238281-.523438-.476562-.785157-.710937-.625-.558594-1.253906-1.109375-1.882812-1.65625-.183594-.15625-.363281-.316407-.546875-.472657-.808594-.691406-1.625-1.371093-2.445313-2.042968-.199218-.167969-.40625-.328125-.609374-.492188-.628907-.507812-1.261719-1.015625-1.898438-1.511718-.277344-.214844-.554688-.429688-.832031-.644532-.601563-.464844-1.207031-.921875-1.816407-1.375-.25-.1875-.503906-.378906-.753906-.566406-.847656-.621094-1.695312-1.238281-2.550781-1.84375-.054687-.039062-.109375-.074219-.164063-.113281-.804687-.566407-1.613281-1.121094-2.429687-1.671875-.269531-.183594-.539063-.363282-.808594-.542969-.621093-.410156-1.242187-.820313-1.863281-1.222656-.285156-.183594-.570312-.371094-.855469-.550781-.699219-.449219-1.402343-.886719-2.105469-1.320313-.183593-.113281-.363281-.230469-.546874-.34375-.878907-.539063-1.765626-1.066406-2.652344-1.585937-.230469-.136719-.460938-.265626-.691406-.402344-.667969-.386719-1.339844-.773438-2.015626-1.152344-.292968-.164062-.59375-.332031-.886718-.496094-.652344-.359375-1.304688-.714844-1.957032-1.066406-.261718-.140625-.519531-.285156-.78125-.421875-.898437-.480469-1.800781-.949219-2.703124-1.410156-.097657-.050781-.199219-.101563-.300782-.152344-.808594-.414063-1.617187-.816406-2.425781-1.210937-.289063-.140626-.574219-.28125-.863281-.417969-.644532-.3125-1.292969-.621094-1.941406-.925781-.292969-.136719-.585938-.277344-.878907-.414063-.746093-.347656-1.492187-.6875-2.242187-1.019531-.167969-.078125-.335938-.15625-.503906-.230469-.910157-.402344-1.820313-.796875-2.726563-1.1875-.25-.105469-.5-.210937-.75-.3125-.675781-.285156-1.351563-.570313-2.027344-.84375-.300781-.125-.605469-.25-.90625-.371094-.667969-.269531-1.335937-.535156-2.003906-.796875-.253906-.101562-.511719-.203125-.769531-.300781-.90625-.355469-1.816406-.699219-2.722656-1.039063-.132813-.050781-.269532-.097656-.402344-.144531-.777344-.289062-1.554688-.570312-2.335938-.847656-.289062-.105469-.578125-.207031-.867187-.308594-.644531-.226562-1.289063-.449219-1.933594-.671875-.289063-.097656-.574219-.195312-.863281-.292968-.765625-.257813-1.53125-.511719-2.292969-.761719-.136719-.042969-.277344-.089844-.414063-.136719-.894531-.289062-1.789062-.570312-2.679687-.847656-.253906-.078125-.507813-.15625-.765625-.234375-.652344-.199219-1.300781-.394531-1.949219-.589844-.296875-.085937-.589843-.171875-.878906-.257813-.65625-.191406-1.3125-.378906-1.964844-.566406-.238281-.066406-.476562-.136718-.714843-.203125-.875-.246093-1.746094-.484375-2.617188-.71875-.15625-.042969-.3125-.082031-.46875-.121093-.71875-.195313-1.433594-.382813-2.148438-.5625-.277343-.074219-.558593-.144532-.835937-.214844-.609375-.152344-1.21875-.304688-1.824219-.453125-.273437-.066407-.546875-.132813-.816406-.199219-.75-.183594-1.496094-.359375-2.238281-.53125-.101563-.023438-.203125-.046875-.300781-.070312-.839844-.195313-1.675782-.382813-2.507813-.566407-.242187-.050781-.480469-.105469-.722656-.15625-.601563-.128906-1.199219-.257812-1.796875-.382812-.269532-.058594-.542969-.113281-.8125-.171875-.617188-.125-1.226563-.25-1.835938-.371094-.203125-.042969-.410156-.085938-.613281-.125-.804687-.160156-1.601563-.3125-2.390625-.460938-.160156-.03125-.316406-.058593-.476562-.085937-.632813-.121094-1.265626-.234375-1.894532-.347656-.25-.046875-.5-.089844-.75-.132813-.550781-.097656-1.101562-.191406-1.648437-.285156-.238281-.039062-.472657-.078125-.707031-.121094-.699219-.113281-1.390626-.226562-2.074219-.335937-.058594-.007813-.117188-.019531-.175781-.03125-.746094-.117188-1.476563-.226563-2.207032-.335938-.214844-.035156-.425781-.066406-.636718-.097656-.527344-.074219-1.046876-.152344-1.5625-.222656-.230469-.035157-.460938-.066407-.6875-.097657-.535157-.074218-1.066407-.148437-1.59375-.21875-.171876-.023437-.347657-.046874-.515626-.066406-.683593-.089844-1.359374-.175781-2.023437-.257812-.148437-.019532-.292969-.035156-.441406-.054688-.523438-.0625-1.042969-.125-1.550781-.1875-.210938-.023437-.421876-.046875-.628907-.070312-.460937-.050782-.917969-.105469-1.367187-.152344-.191406-.019531-.382813-.042969-.566406-.0625-.613282-.066406-1.21875-.128906-1.8125-.1875-.007813 0-.015626 0-.023438 0-.601562-.0625-1.191406-.117188-1.773438-.171875-.175781-.015625-.347656-.03125-.523437-.046875-.414063-.039062-.824219-.074219-1.226563-.109375-.175781-.011719-.355468-.027344-.527343-.042969-.429688-.035156-.847657-.070312-1.261719-.101562-.121094-.011719-.246094-.023438-.371094-.03125-.523437-.039063-1.035156-.078125-1.535156-.113282-.121094-.007812-.234375-.019531-.355469-.027343-.277343-.015625-.546875-.035157-.816406-.054688-3.144531-.203125-6.171875 1.148438-8.359375 3.335938l157.828125 157.828125c1.074219-1.074219 1.941406-2.355469 2.527344-3.761719.058593-.144531.121093-.292969.183593-.445313.027344-.078124.058594-.148437.089844-.226562.109375-.269531.222656-.550781.335938-.839844.019531-.046875.039062-.101562.058594-.148437.09375-.242188.191406-.492188.289062-.75.039062-.105469.078125-.214844.121094-.320313.078125-.210937.15625-.421875.238281-.640625.042969-.121093.089844-.25.136719-.378906.078125-.214844.15625-.433594.238281-.65625.046875-.128906.09375-.257813.140625-.394531.082031-.238282.167969-.488282.253906-.734375.042969-.121094.082032-.238281.121094-.359375.128906-.375.253906-.753906.382812-1.144532.003907-.015624.011719-.03125.015626-.046874.121093-.375.246093-.757813.367187-1.148438.039063-.128906.082031-.261719.121094-.394531.085937-.285157.175781-.570313.261719-.859375.046874-.15625.09375-.316406.140624-.472656.082032-.277344.164063-.554688.246094-.835938.046875-.167969.09375-.335938.144532-.507812.082031-.296876.167968-.597657.25-.90625.039062-.152344.082031-.304688.125-.460938.109374-.410156.21875-.824219.324218-1.242188.015625-.058593.03125-.113281.046875-.171874.117188-.472657.238281-.960938.355469-1.449219.035156-.148438.070312-.304688.105469-.453125.082031-.347656.164062-.699219.242187-1.054688.042969-.183594.082032-.371094.125-.554687.070313-.332031.144532-.667969.214844-1.003907.039062-.199218.078125-.394531.121094-.589843.070312-.347657.136718-.699219.207031-1.050781.035156-.1875.074219-.375.109375-.5625.078125-.425782.15625-.855469.230469-1.289063.023437-.117187.042969-.234375.0625-.351563.097656-.554687.1875-1.113281.277343-1.675781.023438-.148437.042969-.300781.066407-.449219.0625-.417968.125-.839843.183593-1.265624.03125-.207032.058594-.417969.085938-.628907.050781-.375.097656-.753906.144531-1.136719.027344-.222656.050781-.449218.078125-.671874.042969-.386719.085938-.769532.125-1.160157.023438-.21875.046875-.4375.070313-.65625.042969-.441406.082031-.882812.117187-1.332031.015625-.164062.03125-.332031.042969-.5.050781-.613281.09375-1.234375.128906-1.859375.007813-.128906.015625-.261719.023438-.390625.027343-.496094.050781-.996094.074219-1.496094.007812-.222656.015624-.445312.023437-.667968.015625-.421876.027344-.839844.035156-1.265626.007813-.242187.011719-.484374.015625-.730468.003906-.414063.007813-.835938.007813-1.257813 0-.238281 0-.480469 0-.726562-.003907-.457031-.007813-.917969-.019531-1.378907-.003907-.203124-.007813-.40625-.011719-.609374-.019531-.664063-.042969-1.332032-.074219-2.003907-.003906-.074219-.007812-.148437-.011719-.21875-.03125-.597656-.066406-1.203125-.109375-1.808593-.015625-.226563-.035156-.457032-.050781-.683594-.035156-.457032-.074219-.914063-.117187-1.375-.023438-.257813-.050782-.519532-.074219-.777344-.046875-.441406-.09375-.886719-.144531-1.328125-.03125-.261719-.0625-.523437-.09375-.78125-.058594-.46875-.121094-.941406-.1875-1.410156-.035157-.234375-.0625-.464844-.097657-.699219-.097656-.648438-.199219-1.300781-.3125-1.953125-.007812-.054687-.015625-.109375-.023437-.160156-.125-.707031-.257813-1.414063-.398438-2.125-.042968-.222657-.09375-.445313-.136718-.664063-.101563-.496094-.207032-.992187-.320313-1.488281-.058594-.265625-.121094-.53125-.183594-.796875-.109375-.460938-.21875-.925781-.335937-1.390625-.066406-.269531-.136719-.542969-.207032-.816406-.128906-.476563-.257812-.953125-.390624-1.433594-.070313-.253906-.140626-.503906-.214844-.757813-.171875-.589843-.351563-1.183593-.535156-1.777343-.042969-.136719-.082032-.269531-.125-.40625-.234376-.730469-.480469-1.460938-.734376-2.191407-.070312-.203124-.144531-.40625-.21875-.609374-.1875-.53125-.382812-1.0625-.582031-1.59375-.101562-.265626-.207031-.535157-.3125-.800782-.183593-.476562-.375-.953125-.570312-1.429687-.113281-.277344-.230469-.558594-.347657-.835938-.203124-.480469-.414062-.960937-.625-1.441406-.117187-.265625-.234374-.527344-.355468-.792969-.25-.550781-.511719-1.101562-.78125-1.65625-.089844-.1875-.175782-.378906-.269532-.566406-.359374-.738281-.734374-1.476562-1.125-2.214844-.089843-.171875-.183593-.34375-.277343-.515625-.300781-.566406-.609375-1.136719-.929688-1.703125-.148437-.261718-.300781-.523437-.449219-.785156-.28125-.484375-.5625-.96875-.855468-1.453125-.164063-.277344-.335938-.554687-.507813-.835937-.292969-.476563-.59375-.953126-.898437-1.429688-.175782-.269531-.347656-.542969-.523438-.8125-.34375-.523438-.695312-1.042969-1.050781-1.566406-.148437-.21875-.292969-.433594-.445313-.652344-.511718-.734375-1.039062-1.46875-1.578124-2.203125-.085938-.113281-.175782-.226563-.261719-.339844-.460938-.621093-.933594-1.242187-1.417969-1.859375-.195312-.25-.394531-.496094-.59375-.742187-.390625-.488281-.78125-.976563-1.183594-1.460938-.230468-.273437-.460937-.546875-.691406-.824219-.398438-.464843-.800781-.933593-1.210938-1.398437-.238281-.273437-.472656-.542969-.714843-.8125-.445313-.496094-.898438-.988281-1.359375-1.480469-.214844-.234375-.425782-.464844-.648438-.699218-.679687-.722657-1.375-1.441407-2.09375-2.15625-.765625-.765626-1.542968-1.519532-2.324218-2.265626-.242188-.238281-.484376-.460937-.726563-.6875zm0 0" fill="url(#l)"/><path d="m147.804688 239.925781c.433593 1.609375.757812 3.230469 1.09375 4.832031.34375 1.601563.6875 3.195313.941406 4.78125.292968 1.589844.355468 3.175782.449218 4.742188.085938 1.566406.414063 3.113281.980469 4.675781.582031 1.550781 1.234375 3.101563 2.066407 4.699219-1.769532-1.640625-3.535157-3.28125-5.308594-4.921875l-8.566406-8.113281c-2.875-2.695313-5.585938-5.503906-8.429688-8.238282-5.59375-5.535156-10.980469-11.199218-16.074219-17.179687l-1.289062.726563 3.25 4.960937 1.640625 2.5c.5625.820313 1.164062 1.601563 1.746094 2.40625 2.382812 3.164063 4.691406 6.445313 7.203124 9.511719 4.910157 6.265625 10.0625 12.320312 15.195313 18.410156 1.011719 1.152344 2.027344 2.304688 3.042969 3.457031-1.15625-.335937-2.308594-.589843-3.472656-.664062-1.570313-.109375-3.160157-.1875-4.75-.492188-1.589844-.273437-3.179688-.628906-4.78125-.988281-1.601563-.351562-3.222657-.691406-4.835938-1.140625-3.253906-.761719-6.496094-1.816406-9.839844-2.8125l-.285156.789063c2.9375 2.265624 6.027344 4.359374 9.226562 6.214843 1.597657.945313 3.230469 1.789063 4.871094 2.65625 1.652344.78125 3.316406 1.570313 5 2.273438 1.683594.71875 3.371094 1.539062 5.082032 2.292969 1.710937.714843 3.449218 1.148437 5.171874 1.226562.339844.011719.675782.015625 1.015626.015625 3.667968-.015625 7.523437 1.878906 10.324218 4.957031l.050782.058594c4.875 5.359375 9.835937 10.621094 14.78125 15.910156-1.625-.4375-3.167969-.714844-4.695313-.925781-1.570313-.191406-3.066406-.148437-4.519531.148437-1.460938.292969-2.929688.625-4.453125.714844-1.519531.132813-3.0625.171875-4.613281.21875-1.550782.050782-3.113282.117188-4.695313.070313-3.164063.058593-6.386719-.191407-9.6875-.355469l-.054687.882812c3.253906 1.570313 6.605468 2.921876 10 4.003907 1.699218.558593 3.402343 1.003906 5.121093 1.46875 1.703125.378906 3.425781.761719 5.140625 1.050781 1.71875.304688 3.464844.714844 5.21875 1.042969 1.742188.292969 3.4375.296875 5.027344-.070313.699219-.167968 1.390625-.367187 2.066406-.609375 3.296875-1.175781 7.511719.285157 10.371094 3.410157 2.457031 2.683593 4.910156 5.371093 7.382812 8.039062 3.125 3.386719 6.382813 6.636719 9.734376 9.777344-1.402344-.347656-2.746094-.585938-4.078126-.769532-1.574218-.191406-3.070312-.148437-4.523437.148438-1.457031.292969-2.929687.621094-4.453125.714844-1.515625.132812-3.058594.171875-4.609375.21875s-3.113281.117187-4.699219.070312c-3.160156.058594-6.382812-.191406-9.6875-.355468l-.054687.882812c3.257812 1.566406 6.605469 2.921875 10 4.003906 1.699219.558594 3.402343 1.003906 5.121093 1.46875 1.703126.378906 3.425782.761719 5.140626 1.050782 1.71875.304687 3.464843.710937 5.21875 1.042968 1.742187.292969 3.4375.292969 5.027343-.070312 1.566407-.382813 3.105469-.914063 4.507813-1.738282 1.609375-.945312 3.859375-.65625 5.644531.800782 4.625 3.769531 13.023437 10.527344 17.671875 13.859375 6.324219 4.472656 12.792969 8.773437 19.777344 12.457031.339844.179688.800781.066406 1.089844-.265625.269531-.3125.320312-.742187.125-1.039063-4.363282-6.699218-9.171876-12.863281-14.125-18.851562-5.09375-6.125-10.367188-12.023438-15.808594-17.738281-.09375-.101563-.191406-.203125-.289063-.304688-1.753906-1.839843-2.167969-4.332031-1.152343-6.121093.75-1.316407 1.25-2.746094 1.621093-4.207032.382813-1.578125.398438-3.273437.121094-5.015625-.3125-1.753906-.707031-3.5-.996094-5.21875-.273437-1.710937-.636719-3.433593-1-5.140625-.449219-1.71875-.878906-3.417968-1.421875-5.121094-1.050781-3.394531-2.375-6.753906-3.914062-10.015624l-.886719.046874c.132813 3.296876.351563 6.515626.265625 9.667969.027344 1.582031-.054688 3.140625-.121094 4.6875-.058594 1.546875-.113281 3.085938-.261718 4.597657-.105469 1.519531-.449219 2.984374-.757813 4.4375-.316406 1.449218-.375 2.941406-.195313 4.507812.21875 1.707031.535157 3.433594 1.054688 5.273438-3-2.84375-6.074219-5.605469-9.222656-8.289063-2.527344-2.125-5.910156-5.019531-8.878906-7.574219-3.15625-2.714844-4.730469-6.832031-3.710938-10.144531.496094-1.621094.730469-3.359375 1.117188-4.875.382812-1.578125.398437-3.273437.121093-5.015625-.316406-1.753906-.707031-3.5-.996093-5.21875-.273438-1.710938-.640626-3.433594-1-5.140625-.453126-1.71875-.878907-3.421875-1.425782-5.121094-1.050781-3.394531-2.371094-6.753906-3.914062-10.019531l-.882813.046875c.128907 3.296875.347657 6.515625.261719 9.671875.03125 1.578125-.054688 3.140625-.117188 4.683594-.0625 1.546875-.117187 3.085937-.261718 4.601562-.109375 1.519532-.453125 2.984375-.761719 4.433594-.316406 1.453125-.371094 2.945312-.195313 4.511719.386719 3.003906 1.050782 6.070312 2.695313 9.746093-5.8125-5.28125-11.675781-10.527343-17.425781-15.878906l-.226563-.203125c-3.550781-3.1875-5.621093-7.753906-5.0625-11.808593.15625-1.144532.195313-2.3125.171875-3.476563-.058594-1.71875-.480468-3.457031-1.179687-5.171875-.734375-1.714844-1.542969-3.40625-2.246094-5.09375-.6875-1.6875-1.464844-3.355469-2.230469-5.011719-.851562-1.648437-1.679687-3.28125-2.613281-4.886719-1.828125-3.214843-3.898437-6.316406-6.136719-9.265624l-.796875.273437c.964844 3.34375 1.992188 6.589844 2.722657 9.847656zm0 0" fill="url(#m)"/><path d="m461.070312 50.707031h-434.507812c-14 0-25.351562-11.351562-25.351562-25.355469 0-14 11.351562-25.351562 25.351562-25.351562h434.507812c14 0 25.351563 11.351562 25.351563 25.351562 0 14.003907-11.351563 25.355469-25.351563 25.355469zm0 0" fill="url(#n)"/><path d="m461.070312 512h-434.507812c-14 0-25.351562-11.351562-25.351562-25.351562 0-14.003907 11.351562-25.355469 25.351562-25.355469h434.507812c14 0 25.351563 11.351562 25.351563 25.355469 0 14-11.351563 25.351562-25.351563 25.351562zm0 0" fill="url(#o)"/></svg>